<svg viewBox="0 0 674.6 175.7" xmlns="http://www.w3.org/2000/svg" xmlns:xlink="http://www.w3.org/1999/xlink" id="Livello_1" overflow="hidden"><g><g><path d="M524.1 13.8C524.1 5.3 530.9 1.1 544.6 1.1 559 1.1 566.2 4.9 566.2 12.4 566.2 13.1 566 13.7 565.5 14.1 565.1 14.6 564.5 14.8 563.8 14.8L557.9 14.8C556 14.8 554.4 14 553.1 12.4 551.8 10.8 549.3 10 545.5 10 540.3 10 537.7 11.3 537.7 13.8 537.7 15 538.7 16 540.7 16.7 542.7 17.5 545.2 18.2 548.1 18.8 551 19.4 553.9 20.1 556.9 21.1 559.8 22 562.3 23.5 564.3 25.5 566.3 27.5 567.3 30 567.3 33.1 567.3 41.6 560.1 45.8 545.7 45.8 531.3 45.8 524.1 42.1 524.1 34.6 524.1 33.9 524.3 33.3 524.8 32.8 525.3 32.3 525.8 32.1 526.5 32.1L532.4 32.1C534.3 32.1 535.9 32.9 537.2 34.5 538.5 36.1 541 36.9 544.8 36.9 550.8 36.9 553.8 35.6 553.8 33.1 553.8 31.9 552.8 30.9 550.8 30.2 548.8 29.4 546.3 28.7 543.3 28.1 540.4 27.5 537.4 26.7 534.5 25.8 531.6 24.9 529.1 23.4 527.1 21.4 525.1 19.3 524.1 16.8 524.1 13.8Z" fill="#005CA2"/><path d="M576.1 55.8 576.1 4.3C576.1 3.6 576.3 3 576.8 2.6 577.3 2.2 577.8 1.9 578.5 1.9L586.1 1.9C586.8 1.9 587.4 2.1 587.8 2.6 588.3 3.1 588.5 3.6 588.5 4.3L588.5 5.5C592.6 2.6 597.5 1.1 602.9 1.1 608.3 1.1 613 3 616.6 6.9 620.3 10.8 622.1 16.3 622.1 23.5 622.1 30.7 620.2 36.2 616.4 40 612.6 43.8 607.5 45.7 601 45.7 597.7 45.7 593.9 45 589.6 43.7L589.6 55.8C589.6 56.5 589.4 57.1 588.9 57.5 588.4 58 587.9 58.2 587.2 58.2L578.4 58.2C577.7 58.2 577.1 58 576.7 57.5 576.3 57.1 576.1 56.5 576.1 55.8ZM589.7 34.7C593.1 35.8 595.9 36.3 598.2 36.3 601.8 36.3 604.3 35.3 605.8 33.2 607.3 31.2 608.1 27.9 608.1 23.4 608.1 18.9 607.4 15.7 606 13.6 604.6 11.6 602.4 10.6 599.6 10.6 596.8 10.6 593.5 11.8 589.7 14.1L589.7 34.7Z" fill="#005CA2"/><path d="M632.2 42.1C628.7 39.7 627 36.3 627 31.9 627 27.5 628.7 24.1 632.2 21.8 635.7 19.5 640.2 18.3 645.6 18.3L658.6 18.3C658.6 15.2 658 13.1 656.7 11.9 655.4 10.7 653.2 10.1 650 10.1 646.8 10.1 644.5 10.9 643.2 12.5 641.9 14.1 640.3 14.9 638.4 14.9L632.5 14.9C631.8 14.9 631.2 14.7 630.8 14.2 630.3 13.7 630.1 13.2 630.1 12.5 630.1 5 637.2 1.2 651.5 1.2 657.7 1.2 662.7 2.6 666.5 5.4 670.3 8.2 672.2 12.5 672.2 18.4L672.2 42.7C672.2 43.4 672 44 671.5 44.4 671.1 44.8 670.5 45.1 669.8 45.1L662.2 45.1C661.5 45.1 660.9 44.9 660.5 44.4 660.1 43.9 659.8 43.4 659.8 42.7L659.8 41.5C655.7 44.5 650.9 45.9 645.5 45.9 640.1 45.8 635.7 44.5 632.2 42.1ZM642.2 28.5C641.1 29.4 640.6 30.5 640.6 32 640.6 33.4 641.2 34.6 642.3 35.5 643.4 36.4 645 36.9 647 36.9 651 36.9 654.9 35.7 658.7 33.4L658.7 27.3 646.6 27.3C644.7 27.1 643.3 27.6 642.2 28.5Z" fill="#005CA2"/><path d="M488.5 172.8 467.8 172.8C464.9 172.8 462.6 170.5 462.6 167.6L462.6 77.5C462.6 74.6 464.9 72.3 467.8 72.3L488.5 72.3C491.4 72.3 493.7 74.6 493.7 77.5L493.7 167.6C493.7 170.5 491.4 172.8 488.5 172.8Z" fill="#6D6A69"/><path d="M672 167.6 672 77.5C672 74.6 669.7 72.3 666.8 72.3L646 72.3C643.1 72.3 640.8 74.6 640.8 77.5L640.8 167.6C640.8 170.5 643.1 172.8 646 172.8L666.7 172.8C669.6 172.8 672 170.5 672 167.6Z" fill="#6D6A69"/><path d="M309.9 166.6C319 161.2 323.5 153.3 323.5 142.7 323.5 141.1 323 139.8 321.9 138.7 320.8 137.6 319.5 137.1 317.8 137.1L304.1 137.1C299.9 137.1 296.4 139.4 293.5 143.9 289.9 149.7 283.4 152.5 274.1 152.5 264.8 152.5 258.2 150.1 254.5 145.4 250.7 140.7 248.9 133 248.9 122.5 248.9 112 250.7 104.3 254.4 99.6 258 94.9 264.4 92.6 273.6 92.6 282.7 92.6 289.1 95.5 292.7 101.2 295.6 105.7 299.1 107.9 303.3 107.9L317 107.9C318.7 107.9 320 107.4 321.1 106.3 322.2 105.3 322.7 103.9 322.7 102.3 322.7 91.8 318.2 83.8 309.1 78.4 300 73 287 70.3 270.1 70.3 253.2 70.3 240 74.7 230.5 83.6 221 92.4 216.3 105.4 216.3 122.5 216.3 139.6 221.1 152.5 230.6 161.4 240.1 170.2 253.5 174.6 270.6 174.6 287.7 174.6 300.8 172 309.9 166.6Z" fill="#6D6A69"/><path d="M340.2 171.2C341.3 172.3 342.6 172.8 344.2 172.8L364.7 172.8C366.3 172.8 367.6 172.3 368.7 171.2 369.8 170.1 370.3 168.8 370.3 167.2L370.3 105.7C379 97 387.2 92.6 394.9 92.6 406.6 92.6 412.4 99.9 412.4 114.5L412.4 167.2C412.4 168.8 412.9 170.1 414 171.2 415.1 172.3 416.4 172.8 418 172.8L438.5 172.8C440.2 172.8 441.5 172.3 442.6 171.2 443.7 170.1 444.2 168.8 444.2 167.2L444.2 114.5C444.2 99.6 440.5 88.5 433 81.2 425.5 73.9 415.9 70.3 404 70.3 392.1 70.3 380.9 74.7 370.4 83.6L370.4 47C370.4 45.3 369.9 44 368.8 42.9 367.7 41.8 366.4 41.3 364.8 41.3L344.3 41.3C342.7 41.3 341.4 41.8 340.3 42.9 339.2 44 338.7 45.3 338.7 47L338.7 167.3C338.6 168.8 339.1 170.2 340.2 171.2Z" fill="#6D6A69"/><path d="M208 72.1C206.9 71 205.5 70.5 203.9 70.5 194.4 70.5 186.7 71.6 180.9 73.8 175.2 75.9 168.8 79.7 162.6 84.1L162.6 77.6C162.6 74.7 160.3 72.4 157.4 72.4L136.7 72.4C133.8 72.4 131.5 74.7 131.5 77.6L131.5 167.7C131.5 170.6 133.8 172.9 136.7 172.9L157.4 172.9C160.3 172.9 162.6 170.6 162.6 167.7L162.6 109C170.1 100.4 178.5 95 186.6 95L200.9 95.5 203.9 95.5C205.6 95.5 207 95 208 93.9 209.1 92.9 209.6 91.5 209.6 89.9L209.6 76C209.7 74.5 209.1 73.1 208 72.1Z" fill="#6D6A69"/><path d="M507.6 77C507.6 77.9 507.9 79 508.5 80.4L548.1 164.8C549.2 167.2 550.9 169.1 553.2 170.6 555.5 172.1 557.9 172.8 560.4 172.8L574 172.8C576.5 172.8 578.9 172.1 581.3 170.6 583.7 169.1 585.4 167.2 586.5 164.8L626.1 80.4C626.7 79.1 626.9 78 627 77.1 627 76.2 626.9 75.4 626.6 74.8 625.9 73.2 624.5 72.4 622.4 72.4L604.7 72.4C602.1 72.4 599.6 73.1 597.3 74.6 595 76.1 593.3 78 592.3 80.4L567.3 137.6 542.3 80.4C541.3 78 539.7 76.1 537.3 74.6 535 73.1 532.5 72.4 529.9 72.4L512.3 72.4C509.1 72.3 507.6 73.8 507.6 77Z" fill="#6D6A69"/><path d="M94.7 80.2C85.9 73.7 74.2 70.4 59.7 70.4 26.4 70.4 9.7 79.2 9.7 96.7 9.7 98.3 10.2 99.6 11.3 100.7 12.4 101.8 13.7 102.3 15.4 102.3L29.1 102.3C33.5 102.3 37.2 100.5 40.2 96.8 43.2 93.1 48.5 91.3 56 91.3 63.5 91.3 68.7 92.7 71.7 95.5 74.7 98.3 76.2 103.3 76.2 110.4L45.9 110.4C33.1 110.4 22.7 113.2 14.6 118.7 6.5 124.2 2.4 132.1 2.4 142.4 2.4 152.7 6.5 160.6 14.6 166.2 22.7 171.8 33.1 174.7 45.7 174.7 58.3 174.7 69.5 171.3 79.1 164.4L79.1 167.2C79.1 168.8 79.6 170.1 80.7 171.2 81.7 172.3 83.1 172.8 84.7 172.8L102.4 172.8C104 172.8 105.4 172.3 106.4 171.2 107.4 170.2 108 168.8 108 167.2L108 110.4C107.9 96.8 103.5 86.7 94.7 80.2ZM76.2 145.6C67.5 151.1 58.4 153.9 49 153.9 44.3 153.9 40.7 152.8 38.1 150.7 35.5 148.6 34.2 145.8 34.2 142.5 34.2 139.2 35.4 136.5 37.9 134.4 40.4 132.3 43.8 131.3 48 131.3L76.2 131.3 76.2 145.6Z" fill="#005CA2"/></g></g></svg>