<svg viewBox="0 0 907.1 481.9" xmlns="http://www.w3.org/2000/svg" xmlns:xlink="http://www.w3.org/1999/xlink" id="Livello_1" overflow="hidden"><g><g><path d="M703 209.7C703 198.4 712.1 192.7 730.4 192.7 749.6 192.7 759.2 197.7 759.2 207.8 759.2 208.7 758.9 209.5 758.3 210.1 757.7 210.7 756.9 211 756 211L748.2 211C745.7 211 743.6 209.9 741.8 207.8 740.1 205.7 736.7 204.6 731.6 204.6 724.7 204.6 721.2 206.3 721.2 209.7 721.2 211.3 722.6 212.6 725.3 213.6 728 214.7 731.3 215.6 735.2 216.4 739.1 217.2 743 218.2 746.9 219.4 750.8 220.6 754.1 222.6 756.8 225.3 759.5 228 760.9 231.4 760.9 235.5 760.9 246.8 751.3 252.5 732 252.5 712.7 252.5 703.1 247.5 703.1 237.5 703.1 236.6 703.4 235.8 704 235.2 704.6 234.6 705.4 234.3 706.3 234.3L714.1 234.3C716.6 234.3 718.7 235.4 720.5 237.5 722.2 239.6 725.6 240.7 730.7 240.7 738.7 240.7 742.7 239 742.7 235.6 742.7 234 741.3 232.7 738.6 231.7 735.9 230.6 732.6 229.7 728.6 228.9 724.7 228.1 720.8 227.1 716.9 225.8 713 224.6 709.7 222.6 707 219.9 704.4 217.1 703 213.7 703 209.7Z" fill="#005CA2"/><path d="M772.6 265.9 772.6 197C772.6 196.1 772.9 195.3 773.5 194.7 774.1 194.1 774.9 193.8 775.8 193.8L786 193.8C786.9 193.8 787.7 194.1 788.3 194.7 788.9 195.3 789.2 196.1 789.2 197L789.2 198.6C794.7 194.7 801.2 192.7 808.5 192.7 815.8 192.7 821.9 195.3 826.9 200.5 831.8 205.7 834.3 213.1 834.3 222.7 834.3 232.3 831.8 239.7 826.7 244.8 821.6 249.9 814.8 252.5 806.1 252.5 801.6 252.5 796.6 251.6 790.9 249.8L790.9 266C790.9 266.9 790.6 267.7 790 268.3 789.4 268.9 788.6 269.2 787.7 269.2L775.9 269.2C775 269.2 774.2 268.9 773.6 268.3 772.9 267.7 772.6 266.9 772.6 265.9ZM790.8 237.6C795.3 239 799.1 239.8 802.2 239.8 807 239.8 810.4 238.4 812.4 235.7 814.4 233 815.4 228.6 815.4 222.6 815.4 216.6 814.4 212.2 812.5 209.5 810.6 206.8 807.7 205.4 803.9 205.4 800.1 205.4 795.7 207 790.7 210.1L790.7 237.6Z" fill="#005CA2"/><path d="M847.6 247.6C843 244.4 840.6 239.8 840.6 233.9 840.6 228 842.9 223.5 847.6 220.3 852.2 217.1 858.2 215.6 865.6 215.6L883 215.6C883 211.5 882.1 208.6 880.4 207 878.7 205.4 875.7 204.6 871.4 204.6 867.1 204.6 864.1 205.7 862.4 207.8 860.7 209.9 858.5 211 856 211L848.2 211C847.3 211 846.5 210.7 845.9 210.1 845.3 209.5 845 208.7 845 207.8 845 197.7 854.6 192.7 873.7 192.7 882 192.7 888.7 194.6 893.8 198.3 898.9 202 901.4 207.8 901.4 215.6L901.4 248.2C901.4 249.1 901.1 249.9 900.5 250.5 899.9 251.1 899.1 251.4 898.2 251.4L888 251.4C887.1 251.4 886.3 251.1 885.7 250.5 885.1 249.9 884.8 249.1 884.8 248.2L884.8 246.6C879.3 250.6 872.9 252.5 865.6 252.5 858.3 252.5 852.3 250.9 847.6 247.6ZM861 229.4C859.6 230.6 858.9 232.1 858.9 234 858.9 235.9 859.6 237.5 861.1 238.7 862.6 239.9 864.7 240.5 867.4 240.5 872.8 240.5 878 238.9 883 235.8L883 227.6 866.8 227.6C864.4 227.6 862.5 228.2 861 229.4Z" fill="#005CA2"/><path d="M655.4 422.5 627.7 422.5C623.8 422.5 620.7 419.4 620.7 415.5L620.7 294.9C620.7 291 623.8 287.9 627.7 287.9L655.4 287.9C659.3 287.9 662.4 291 662.4 294.9L662.4 415.4C662.4 419.3 659.2 422.5 655.4 422.5Z" fill="#6D6A69"/><path d="M900.8 415.5 900.8 294.9C900.8 291 897.7 287.9 893.8 287.9L866.1 287.9C862.2 287.9 859.1 291 859.1 294.9L859.1 415.4C859.1 419.3 862.2 422.4 866.1 422.4L893.8 422.4C897.7 422.5 900.8 419.3 900.8 415.5Z" fill="#6D6A69"/><path d="M416.5 414.1C428.6 406.9 434.7 396.3 434.7 382.2 434.7 380.1 434 378.3 432.6 376.9 431.2 375.5 429.3 374.8 427.1 374.8L408.8 374.8C403.2 374.8 398.5 377.8 394.7 383.9 389.9 391.6 381.2 395.4 368.7 395.4 356.2 395.4 347.5 392.3 342.4 386 337.4 379.7 334.9 369.5 334.9 355.3 334.9 341.1 337.3 330.9 342.2 324.7 347.1 318.4 355.6 315.3 367.8 315.3 380 315.3 388.6 319.1 393.4 326.8 397.2 332.8 401.9 335.8 407.5 335.8L425.8 335.8C428 335.8 429.8 335.1 431.3 333.7 432.7 332.3 433.4 330.5 433.4 328.3 433.4 314.2 427.3 303.6 415.2 296.4 403.1 289.2 385.7 285.6 363 285.6 340.4 285.6 322.7 291.5 310.1 303.3 297.4 315.1 291.1 332.5 291.1 355.3 291.1 378.2 297.5 395.5 310.2 407.3 322.9 419.1 340.8 425 363.8 425 386.8 425 404.4 421.3 416.5 414.1Z" fill="#6D6A69"/><path d="M457 420.3C458.4 421.7 460.2 422.4 462.3 422.4L489.8 422.4C491.9 422.4 493.7 421.7 495.1 420.3 496.5 418.9 497.2 417.1 497.2 415L497.2 332.8C508.9 321.1 519.9 315.3 530.1 315.3 545.7 315.3 553.5 325.1 553.5 344.6L553.5 415C553.5 417.1 554.2 418.9 555.6 420.3 557 421.7 558.8 422.4 560.9 422.4L588.3 422.4C590.5 422.4 592.3 421.7 593.8 420.3 595.2 418.9 595.9 417.1 595.9 415L595.9 344.6C595.9 324.6 590.9 309.8 580.9 300.1 570.9 290.4 558 285.6 542.1 285.6 526.2 285.6 511.2 291.5 497.1 303.4L497.1 254.2C497.1 252 496.4 250.2 495 248.7 493.6 247.3 491.8 246.5 489.7 246.5L462.2 246.5C460.1 246.5 458.3 247.2 456.9 248.7 455.5 250.1 454.8 252 454.8 254.2L454.8 415C454.9 417.1 455.6 418.9 457 420.3Z" fill="#6D6A69"/><path d="M280.3 287.7C278.8 286.3 277 285.6 274.8 285.6 262.1 285.6 251.9 287.1 244 290 236.4 292.8 227.8 298 219.6 303.8L219.6 295.1C219.6 291.2 216.5 288.1 212.6 288.1L184.9 288.1C181 288.1 177.9 291.2 177.9 295.1L177.9 415.6C177.9 419.5 181 422.6 184.9 422.6L212.6 422.6C216.5 422.6 219.6 419.5 219.6 415.6L219.6 337.2C229.6 325.7 240.8 318.5 251.7 318.5L270.8 319.2 274.8 319.2C277 319.2 278.9 318.5 280.3 317.1 281.7 315.7 282.5 313.9 282.5 311.7L282.5 293C282.5 290.9 281.7 289.1 280.3 287.7Z" fill="#6D6A69"/><path d="M680.9 294.2C680.9 295.4 681.3 296.9 682.1 298.7L735.1 411.6C736.6 414.8 738.9 417.4 742 419.4 745.1 421.4 748.3 422.4 751.7 422.4L769.7 422.4C773.1 422.4 776.3 421.4 779.5 419.4 782.6 417.4 785 414.8 786.4 411.6L839.4 298.7C840.1 297 840.5 295.5 840.6 294.2 840.6 292.9 840.5 291.9 840 291.1 839.1 289 837.2 287.9 834.4 287.9L810.7 287.9C807.2 287.9 803.9 288.9 800.8 290.9 797.7 292.9 795.5 295.5 794.2 298.7L760.8 375.1 727.3 298.7C726 295.5 723.8 292.9 720.7 290.9 717.6 288.9 714.3 287.9 710.8 287.9L687.2 287.9C683 288 680.9 290.1 680.9 294.2Z" fill="#6D6A69"/><path d="M128.8 298.6C117 289.9 101.4 285.5 81.9 285.5 37.3 285.5 15.1 297.2 15.1 320.7 15.1 322.8 15.8 324.6 17.2 326 18.6 327.4 20.4 328.1 22.7 328.1L41 328.1C46.9 328.1 51.9 325.6 55.9 320.7 59.9 315.8 67 313.3 77 313.3 87 313.3 94 315.2 98 318.9 102 322.7 104 329.3 104 338.9L63.4 338.9C46.3 338.9 32.3 342.6 21.5 349.9 10.7 357.3 5.2 367.8 5.2 381.6 5.2 395.3 10.6 406 21.5 413.5 32.3 421 46.2 424.8 63.1 424.8 80 424.8 94.9 420.2 107.8 411L107.8 414.8C107.8 416.9 108.5 418.7 109.9 420.1 111.3 421.5 113.1 422.2 115.3 422.2L139 422.2C141.2 422.2 143 421.5 144.4 420.1 145.8 418.7 146.5 416.9 146.5 414.7L146.5 339C146.4 320.8 140.5 307.3 128.8 298.6ZM104 386C92.3 393.4 80.2 397 67.6 397 61.3 397 56.4 395.6 53 392.7 49.6 389.8 47.9 386.2 47.9 381.8 47.9 377.4 49.6 373.8 52.9 371 56.2 368.2 60.7 366.8 66.5 366.8L104 366.8 104 386Z" fill="#005CA2"/><g><path d="M613.7 210.8 357.6 210.8C353.7 210.8 350.6 207.7 350.6 203.8L350.6 52.5C350.6 48.6 353.7 45.5 357.6 45.5L613.7 45.5C617.6 45.5 620.7 48.6 620.7 52.5L620.7 203.9C620.7 207.7 617.6 210.8 613.7 210.8ZM309 10.8 309 245.5C309 249.4 312.1 252.5 316 252.5L655.4 252.5C659.3 252.5 662.4 249.4 662.4 245.5L662.4 10.8C662.4 6.9 659.3 3.8 655.4 3.8L316 3.8C312.1 3.9 309 7 309 10.8Z" fill="#A3A0A0"/><path d="M147 98.7 12.2 98.7C8.3 98.7 5.2 95.6 5.2 91.7L5.2 10.8C5.2 6.9 8.3 3.8 12.2 3.8L147 3.8C150.9 3.8 154 6.9 154 10.8L154 91.7C154 95.6 150.9 98.7 147 98.7Z" fill="#A3A0A0"/><path d="M212.6 252.5 184.9 252.5C181 252.5 177.9 249.4 177.9 245.5L177.9 10.8C177.9 6.9 181 3.8 184.9 3.8L212.6 3.8C216.5 3.8 219.6 6.9 219.6 10.8L219.6 245.5C219.5 249.4 216.4 252.5 212.6 252.5Z" fill="#A3A0A0"/><path d="M278.1 140.4 250.4 140.4C246.5 140.4 243.4 137.3 243.4 133.4L243.4 52.5C243.4 48.6 246.5 45.5 250.4 45.5L278.1 45.5C282 45.5 285.1 48.6 285.1 52.5L285.1 133.4C285.1 137.3 282 140.4 278.1 140.4Z" fill="#005CA2"/></g></g><g><path d="M9.5 471.6C7.8 470.4 7 468.8 7 466.7 7 464.6 7.8 462.9 9.5 461.8 11.2 460.7 13.3 460.1 16 460.1L22.3 460.1C22.3 458.6 22 457.6 21.4 457 20.8 456.4 19.7 456.1 18.1 456.1 16.5 456.1 15.5 456.5 14.8 457.2 14.2 458 13.4 458.3 12.5 458.3L9.7 458.3C9.4 458.3 9.1 458.2 8.9 458 8.7 457.8 8.6 457.5 8.6 457.2 8.6 453.6 12 451.7 18.9 451.7 21.9 451.7 24.3 452.4 26.2 453.7 28 455 28.9 457.1 28.9 460L28.9 471.8C28.9 472.1 28.8 472.4 28.6 472.6 28.4 472.8 28.1 472.9 27.8 472.9L24.1 472.9C23.8 472.9 23.5 472.8 23.3 472.6 23.1 472.4 23 472.1 23 471.8L23 471.2C21 472.6 18.7 473.3 16.1 473.3 13.4 473.3 11.2 472.7 9.5 471.6ZM14.4 465C13.9 465.4 13.6 466 13.6 466.7 13.6 467.4 13.9 467.9 14.4 468.4 14.9 468.8 15.7 469.1 16.7 469.1 18.6 469.1 20.5 468.5 22.3 467.4L22.3 464.4 16.5 464.4C15.6 464.3 14.9 464.6 14.4 465Z" fill="#6D6A69"/><path d="M59.2 457 56.3 456.9C54.6 456.9 53 457.8 51.4 459.7L51.4 471.8C51.4 472.1 51.3 472.4 51.1 472.6 50.9 472.8 50.6 472.9 50.3 472.9L46 472.9C45.7 472.9 45.4 472.8 45.2 472.6 45 472.4 44.9 472.1 44.9 471.8L44.9 453.3C44.9 453 45 452.7 45.2 452.5 45.4 452.3 45.7 452.2 46 452.2L50.3 452.2C50.6 452.2 50.9 452.3 51.1 452.5 51.3 452.7 51.4 453 51.4 453.3L51.4 454.5C52.7 453.6 53.9 452.9 55.1 452.4 56.3 452 57.9 451.7 59.8 451.7 60.1 451.7 60.4 451.8 60.6 452 60.8 452.2 60.9 452.5 60.9 452.8L60.9 455.7C60.9 456 60.8 456.3 60.6 456.5 60.4 456.7 60.1 456.8 59.8 456.8L59.2 456.8Z" fill="#6D6A69"/><path d="M84.9 473.3C81.3 473.3 78.6 472.4 76.6 470.6 74.6 468.8 73.6 466.1 73.6 462.6 73.6 459.1 74.6 456.4 76.5 454.5 78.5 452.7 81.2 451.8 84.7 451.8 88.2 451.8 90.9 452.4 92.8 453.5 94.7 454.6 95.6 456.3 95.6 458.4 95.6 458.7 95.5 459 95.3 459.2 95.1 459.4 94.8 459.5 94.5 459.5L91.7 459.5C90.8 459.5 90.1 459 89.5 458.1 88.8 456.9 87.4 456.3 85.5 456.3 83.6 456.3 82.3 456.8 81.5 457.8 80.7 458.8 80.4 460.3 80.4 462.5 80.4 464.7 80.8 466.3 81.6 467.2 82.4 468.2 83.7 468.7 85.7 468.7 87.6 468.7 89 468.1 89.7 466.9 90.3 466 91 465.5 91.9 465.5L94.7 465.5C95 465.5 95.3 465.6 95.5 465.8 95.7 466 95.8 466.3 95.8 466.6 95.8 468.8 94.9 470.4 93 471.5 91.2 472.8 88.4 473.3 84.9 473.3Z" fill="#6D6A69"/><path d="M110.2 471.8 110.2 446.9C110.2 446.6 110.3 446.3 110.5 446.1 110.7 445.9 111 445.8 111.3 445.8L115.6 445.8C115.9 445.8 116.2 445.9 116.4 446.1 116.6 446.3 116.7 446.6 116.7 446.9L116.7 454.5C118.9 452.7 121.2 451.7 123.7 451.7 126.2 451.7 128.2 452.5 129.7 454 131.2 455.5 132 457.8 132 460.9L132 471.8C132 472.1 131.9 472.4 131.7 472.6 131.5 472.8 131.2 472.9 130.9 472.9L126.7 472.9C126.4 472.9 126.1 472.8 125.9 472.6 125.7 472.4 125.6 472.1 125.6 471.8L125.6 460.9C125.6 457.9 124.4 456.4 122 456.4 120.4 456.4 118.7 457.3 116.9 459.1L116.9 471.8C116.9 472.1 116.8 472.4 116.6 472.6 116.4 472.8 116.1 472.9 115.8 472.9L111.5 472.9C111.2 472.9 110.9 472.8 110.7 472.6 110.4 472.4 110.2 472.1 110.2 471.8Z" fill="#6D6A69"/><path d="M148.1 448.2 148.1 447.6C148.1 446.9 148.3 446.4 148.7 446 149.1 445.6 149.6 445.4 150.3 445.4L152.7 445.4C153.4 445.4 153.9 445.6 154.3 446 154.7 446.4 154.9 446.9 154.9 447.6L154.9 448.2C154.9 448.9 154.7 449.4 154.3 449.8 153.9 450.2 153.4 450.4 152.7 450.4L150.3 450.4C149.6 450.4 149.1 450.2 148.7 449.8 148.3 449.4 148.1 448.8 148.1 448.2ZM148.1 471.8 148.1 453.8C148.1 453.5 148.2 453.2 148.4 453 148.6 452.8 148.9 452.7 149.2 452.7L153.5 452.7C153.8 452.7 154.1 452.8 154.3 453 154.5 453.2 154.6 453.5 154.6 453.8L154.6 471.8C154.6 472.1 154.5 472.4 154.3 472.6 154.1 472.8 153.8 472.9 153.5 472.9L149.2 472.9C148.9 472.9 148.6 472.8 148.4 472.6 148.2 472.4 148.1 472.1 148.1 471.8Z" fill="#6D6A69"/><path d="M169.8 452.1 173.4 452.1C173.9 452.1 174.5 452.3 174.9 452.6 175.4 452.9 175.7 453.3 175.9 453.8L181.1 465.6 186.3 453.8C186.5 453.3 186.8 452.9 187.3 452.6 187.8 452.3 188.3 452.1 188.8 452.1L192.5 452.1C192.9 452.1 193.2 452.3 193.4 452.6 193.5 452.7 193.5 452.9 193.5 453.1 193.5 453.3 193.4 453.5 193.3 453.8L185.1 471.3C184.9 471.8 184.5 472.2 184 472.5 183.5 472.8 183 473 182.5 473L179.7 473C179.2 473 178.7 472.8 178.2 472.5 177.7 472.2 177.4 471.8 177.1 471.3L168.9 453.8C168.8 453.5 168.7 453.3 168.7 453.1 168.8 452.5 169.1 452.1 169.8 452.1Z" fill="#6D6A69"/><path d="M207.5 448.2 207.5 447.6C207.5 446.9 207.7 446.4 208.1 446 208.5 445.6 209 445.4 209.7 445.4L212.1 445.4C212.8 445.4 213.3 445.6 213.7 446 214.1 446.4 214.3 446.9 214.3 447.6L214.3 448.2C214.3 448.9 214.1 449.4 213.7 449.8 213.3 450.2 212.8 450.4 212.1 450.4L209.7 450.4C209 450.4 208.5 450.2 208.1 449.8 207.7 449.4 207.5 448.8 207.5 448.2ZM207.6 471.8 207.6 453.8C207.6 453.5 207.7 453.2 207.9 453 208.1 452.8 208.4 452.7 208.7 452.7L213 452.7C213.3 452.7 213.6 452.8 213.8 453 214 453.2 214.1 453.5 214.1 453.8L214.1 471.8C214.1 472.1 214 472.4 213.8 472.6 213.6 472.8 213.3 472.9 213 472.9L208.7 472.9C208.4 472.9 208.1 472.8 207.9 472.6 207.7 472.4 207.6 472.1 207.6 471.8Z" fill="#6D6A69"/><path d="M231.5 471.6C229.8 470.4 229 468.8 229 466.7 229 464.6 229.8 462.9 231.5 461.8 233.2 460.7 235.3 460.1 238 460.1L244.3 460.1C244.3 458.6 244 457.6 243.4 457 242.8 456.4 241.7 456.1 240.1 456.1 238.5 456.1 237.5 456.5 236.8 457.2 236.2 458 235.4 458.3 234.5 458.3L231.7 458.3C231.4 458.3 231.1 458.2 230.9 458 230.7 457.8 230.6 457.5 230.6 457.2 230.6 453.6 234 451.7 240.9 451.7 243.9 451.7 246.3 452.4 248.2 453.7 250 455 250.9 457.1 250.9 460L250.9 471.8C250.9 472.1 250.8 472.4 250.6 472.6 250.4 472.8 250.1 472.9 249.8 472.9L246 472.9C245.7 472.9 245.4 472.8 245.2 472.6 245 472.4 244.9 472.1 244.9 471.8L244.9 471.2C242.9 472.6 240.6 473.3 238 473.3 235.3 473.3 233.2 472.7 231.5 471.6ZM236.4 465C235.9 465.4 235.6 466 235.6 466.7 235.6 467.4 235.9 467.9 236.4 468.4 236.9 468.8 237.7 469.1 238.7 469.1 240.6 469.1 242.5 468.5 244.3 467.4L244.3 464.4 238.5 464.4C237.6 464.3 236.9 464.6 236.4 465Z" fill="#6D6A69"/><path d="M265.4 455.6 265.4 453.3C265.4 453 265.5 452.7 265.7 452.5 265.9 452.3 266.2 452.2 266.5 452.2L283.8 452.2C284.1 452.2 284.4 452.3 284.6 452.5 284.8 452.7 284.9 453 284.9 453.3L284.9 455.1C284.9 456 284.5 457 283.6 457.9L273.3 468.4 284 468.4C284.3 468.4 284.6 468.5 284.8 468.7 285 468.9 285.1 469.2 285.1 469.5L285.1 471.8C285.1 472.1 285 472.4 284.8 472.6 284.6 472.8 284.3 472.9 284 472.9L266.5 472.9C266.2 472.9 265.9 472.8 265.7 472.6 265.5 472.4 265.4 472.1 265.4 471.8L265.4 470C265.4 469.1 265.9 468.2 266.8 467.2L276.8 456.7 266.6 456.7C266.3 456.7 266 456.6 265.8 456.4 265.6 456.2 265.4 455.9 265.4 455.6Z" fill="#6D6A69"/><path d="M299.8 448.2 299.8 447.6C299.8 446.9 300 446.4 300.4 446 300.8 445.6 301.3 445.4 302 445.4L304.4 445.4C305.1 445.4 305.6 445.6 306 446 306.4 446.4 306.6 446.9 306.6 447.6L306.6 448.2C306.6 448.9 306.4 449.4 306 449.8 305.6 450.2 305.1 450.4 304.4 450.4L302 450.4C301.3 450.4 300.8 450.2 300.4 449.8 300 449.4 299.8 448.8 299.8 448.2ZM299.9 471.8 299.9 453.8C299.9 453.5 300 453.2 300.2 453 300.4 452.8 300.7 452.7 301 452.7L305.3 452.7C305.6 452.7 305.9 452.8 306.1 453 306.3 453.2 306.4 453.5 306.4 453.8L306.4 471.8C306.4 472.1 306.3 472.4 306.1 472.6 305.9 472.8 305.6 472.9 305.3 472.9L301 472.9C300.7 472.9 300.4 472.8 300.2 472.6 300 472.4 299.9 472.1 299.9 471.8Z" fill="#6D6A69"/><path d="M324.3 470.6C322.3 468.8 321.3 466.1 321.3 462.5 321.3 458.9 322.3 456.3 324.3 454.4 326.3 452.6 329.1 451.7 332.8 451.7 336.5 451.7 339.3 452.6 341.3 454.4 343.3 456.2 344.3 458.9 344.3 462.5 344.3 466.1 343.3 468.7 341.3 470.6 339.3 472.4 336.5 473.3 332.8 473.3 329.1 473.3 326.3 472.4 324.3 470.6ZM329.1 457.6C328.3 458.6 327.9 460.3 327.9 462.5 327.9 464.8 328.3 466.4 329.1 467.4 329.9 468.4 331.1 469 332.8 469 334.5 469 335.7 468.5 336.5 467.4 337.3 466.4 337.7 464.7 337.7 462.5 337.7 460.2 337.3 458.6 336.5 457.6 335.7 456.6 334.5 456.1 332.8 456.1 331.1 456.1 329.9 456.6 329.1 457.6Z" fill="#6D6A69"/><path d="M359.1 471.8 359.1 453.3C359.1 453 359.2 452.7 359.4 452.5 359.6 452.3 359.9 452.2 360.2 452.2L364.5 452.2C364.8 452.2 365.1 452.3 365.3 452.5 365.5 452.7 365.6 453 365.6 453.3L365.6 454.5C367.8 452.7 370.1 451.7 372.6 451.7 375.1 451.7 377.1 452.5 378.6 454 380.1 455.5 380.9 457.8 380.9 460.9L380.9 471.8C380.9 472.1 380.8 472.4 380.6 472.6 380.4 472.8 380.1 472.9 379.8 472.9L375.6 472.9C375.3 472.9 375 472.8 374.8 472.6 374.6 472.4 374.5 472.1 374.5 471.8L374.5 460.9C374.5 457.9 373.3 456.4 370.9 456.4 369.3 456.4 367.6 457.3 365.8 459.1L365.8 471.8C365.8 472.1 365.7 472.4 365.5 472.6 365.3 472.8 365 472.9 364.7 472.9L360.4 472.9C360.1 472.9 359.8 472.8 359.6 472.6 359.2 472.4 359.1 472.1 359.1 471.8Z" fill="#6D6A69"/><path d="M398.6 470.6C396.7 468.8 395.7 466.1 395.7 462.6 395.7 459.1 396.7 456.5 398.6 454.6 400.5 452.7 403.3 451.8 406.8 451.8 410.3 451.8 413 452.7 414.9 454.5 416.8 456.3 417.8 458.9 417.8 462.3L417.8 463.4C417.8 463.7 417.7 464 417.5 464.2 417.3 464.4 417 464.5 416.7 464.5L402.4 464.5C402.5 466.1 403 467.2 403.7 467.9 404.5 468.6 405.7 469 407.4 469 409.1 469 410.2 468.6 410.9 467.9 411.5 467.1 412.3 466.8 413.2 466.7L416 466.7C416.3 466.7 416.6 466.8 416.8 467 417 467.2 417.1 467.5 417.1 467.8 417.1 471.4 413.6 473.2 406.7 473.2 403.3 473.3 400.6 472.4 398.6 470.6ZM402.4 460.5 411.2 460.5C411.1 457.5 409.6 456 406.8 456 404 456 402.5 457.6 402.4 460.5Z" fill="#6D6A69"/><path d="M457.5 448.2 457.5 447.6C457.5 446.9 457.7 446.4 458.1 446 458.5 445.6 459 445.4 459.7 445.4L462.1 445.4C462.8 445.4 463.3 445.6 463.7 446 464.1 446.4 464.3 446.9 464.3 447.6L464.3 448.2C464.3 448.9 464.1 449.4 463.7 449.8 463.3 450.2 462.8 450.4 462.1 450.4L459.7 450.4C459 450.4 458.5 450.2 458.1 449.8 457.7 449.4 457.5 448.8 457.5 448.2ZM457.6 471.8 457.6 453.8C457.6 453.5 457.7 453.2 457.9 453 458.1 452.8 458.4 452.7 458.7 452.7L463 452.7C463.3 452.7 463.6 452.8 463.8 453 464 453.2 464.1 453.5 464.1 453.8L464.1 471.8C464.1 472.1 464 472.4 463.8 472.6 463.6 472.8 463.3 472.9 463 472.9L458.7 472.9C458.4 472.9 458.1 472.8 457.9 472.6 457.7 472.4 457.6 472.1 457.6 471.8Z" fill="#6D6A69"/><path d="M480.2 471.8 480.2 453.3C480.2 453 480.3 452.7 480.5 452.5 480.7 452.3 481 452.2 481.3 452.2L485.6 452.2C485.9 452.2 486.2 452.3 486.4 452.5 486.6 452.7 486.7 453 486.7 453.3L486.7 454.5C488.9 452.7 491.2 451.7 493.7 451.7 496.2 451.7 498.2 452.5 499.7 454 501.2 455.5 502 457.8 502 460.9L502 471.8C502 472.1 501.9 472.4 501.7 472.6 501.5 472.8 501.2 472.9 500.9 472.9L496.7 472.9C496.4 472.9 496.1 472.8 495.9 472.6 495.7 472.4 495.6 472.1 495.6 471.8L495.6 460.9C495.6 457.9 494.4 456.4 492 456.4 490.4 456.4 488.7 457.3 486.9 459.1L486.9 471.8C486.9 472.1 486.8 472.4 486.6 472.6 486.4 472.8 486.1 472.9 485.8 472.9L481.5 472.9C481.2 472.9 480.9 472.8 480.7 472.6 480.3 472.4 480.2 472.1 480.2 471.8Z" fill="#6D6A69"/><path d="M544.7 470.6C542.7 468.8 541.7 466.1 541.7 462.5 541.7 458.9 542.7 456.3 544.7 454.4 546.7 452.6 549.5 451.7 553.2 451.7 556.9 451.7 559.7 452.6 561.7 454.4 563.7 456.2 564.7 458.9 564.7 462.5 564.7 466.1 563.7 468.7 561.7 470.6 559.7 472.4 556.9 473.3 553.2 473.3 549.5 473.3 546.7 472.4 544.7 470.6ZM549.5 457.6C548.7 458.6 548.3 460.3 548.3 462.5 548.3 464.8 548.7 466.4 549.5 467.4 550.3 468.4 551.5 469 553.2 469 554.9 469 556.1 468.5 556.9 467.4 557.7 466.4 558.1 464.7 558.1 462.5 558.1 460.2 557.7 458.6 556.9 457.6 556.1 456.6 554.9 456.1 553.2 456.1 551.5 456.1 550.3 456.6 549.5 457.6Z" fill="#6D6A69"/><path d="M579.5 464.2 579.5 453.3C579.5 453 579.6 452.7 579.8 452.5 580 452.3 580.3 452.2 580.6 452.2L584.9 452.2C585.2 452.2 585.5 452.3 585.7 452.5 585.9 452.7 586 453 586 453.3L586 464.2C586 467.2 587.2 468.8 589.6 468.8 591.2 468.8 592.9 467.9 594.7 466.1L594.7 453.4C594.7 453.1 594.8 452.8 595 452.6 595.2 452.4 595.5 452.3 595.8 452.3L600 452.3C600.3 452.3 600.6 452.4 600.8 452.6 601 452.8 601.1 453.1 601.1 453.4L601.1 471.9C601.1 472.2 601 472.5 600.8 472.7 600.6 472.9 600.3 473 600 473L595.8 473C595.5 473 595.2 472.9 595 472.7 594.8 472.5 594.7 472.2 594.7 471.9L594.7 470.7C592.5 472.5 590.2 473.5 587.7 473.5 585.2 473.5 583.2 472.8 581.7 471.3 580.2 469.6 579.5 467.3 579.5 464.2Z" fill="#6D6A69"/><path d="M627.2 468.8 629.8 468.6 630.5 468.6C630.8 468.6 631.1 468.7 631.3 468.9 631.5 469.1 631.6 469.4 631.6 469.7L631.6 471.7C631.6 472 631.5 472.2 631.3 472.5 631.1 472.7 630.8 472.9 630.5 472.9 629.2 473.2 627.5 473.3 625.4 473.3 620 473.3 617.2 470.5 617.2 464.8L617.2 446.9C617.2 446.6 617.3 446.3 617.5 446.1 617.7 445.9 618 445.8 618.3 445.8L622.6 445.8C622.9 445.8 623.2 445.9 623.4 446.1 623.6 446.3 623.7 446.6 623.7 446.9L623.7 453.2 629 453.2C629.3 453.2 629.6 453.3 629.8 453.5 630 453.7 630.1 454 630.1 454.3L630.1 456.6C630.1 456.9 630 457.2 629.8 457.4 629.6 457.6 629.3 457.7 629 457.7L623.7 457.7 623.7 464.7C623.7 466 624 467 624.6 467.7 625.4 468.5 626.2 468.8 627.2 468.8Z" fill="#6D6A69"/><path d="M644.9 457.9C644.9 453.8 648.2 451.8 654.8 451.8 661.7 451.8 665.2 453.6 665.2 457.3 665.2 457.6 665.1 457.9 664.9 458.1 664.7 458.3 664.4 458.4 664.1 458.4L661.3 458.4C660.4 458.4 659.6 458 659 457.3 658.4 456.5 657.2 456.2 655.3 456.2 652.8 456.2 651.5 456.8 651.5 458 651.5 458.6 652 459 653 459.4 654 459.8 655.2 460.1 656.6 460.4 658 460.7 659.4 461 660.8 461.5 662.2 461.9 663.4 462.6 664.4 463.6 665.4 464.6 665.9 465.8 665.9 467.3 665.9 471.4 662.4 473.4 655.5 473.4 648.5 473.4 645.1 471.6 645.1 468 645.1 467.7 645.2 467.4 645.4 467.2 645.6 467 645.9 466.9 646.2 466.9L649 466.9C649.9 466.9 650.7 467.3 651.3 468 651.9 468.8 653.1 469.1 655 469.1 657.9 469.1 659.3 468.5 659.3 467.3 659.3 466.7 658.8 466.3 657.8 465.9 656.8 465.5 655.6 465.2 654.2 464.9 652.8 464.6 651.4 464.2 650 463.8 648.6 463.4 647.4 462.7 646.4 461.7 645.4 460.6 644.9 459.3 644.9 457.9Z" fill="#6D6A69"/><path d="M682.4 470.6C680.4 468.8 679.4 466.1 679.4 462.5 679.4 458.9 680.4 456.3 682.4 454.4 684.4 452.6 687.2 451.7 690.9 451.7 694.6 451.7 697.4 452.6 699.4 454.4 701.4 456.2 702.4 458.9 702.4 462.5 702.4 466.1 701.4 468.7 699.4 470.6 697.4 472.4 694.6 473.3 690.9 473.3 687.2 473.3 684.4 472.4 682.4 470.6ZM687.2 457.6C686.4 458.6 686 460.3 686 462.5 686 464.8 686.4 466.4 687.2 467.4 688 468.4 689.2 469 690.9 469 692.6 469 693.8 468.5 694.6 467.4 695.4 466.4 695.8 464.7 695.8 462.5 695.8 460.2 695.4 458.6 694.6 457.6 693.8 456.6 692.6 456.1 690.9 456.1 689.2 456.1 688 456.6 687.2 457.6Z" fill="#6D6A69"/><path d="M717.2 464.2 717.2 453.3C717.2 453 717.3 452.7 717.5 452.5 717.7 452.3 718 452.2 718.3 452.2L722.6 452.2C722.9 452.2 723.2 452.3 723.4 452.5 723.6 452.7 723.7 453 723.7 453.3L723.7 464.2C723.7 467.2 724.9 468.8 727.3 468.8 728.9 468.8 730.6 467.9 732.4 466.1L732.4 453.4C732.4 453.1 732.5 452.8 732.7 452.6 732.9 452.4 733.2 452.3 733.5 452.3L737.7 452.3C738 452.3 738.3 452.4 738.5 452.6 738.7 452.8 738.8 453.1 738.8 453.4L738.8 471.9C738.8 472.2 738.7 472.5 738.5 472.7 738.3 472.9 738 473 737.7 473L733.5 473C733.2 473 732.9 472.9 732.7 472.7 732.5 472.5 732.4 472.2 732.4 471.9L732.4 470.7C730.2 472.5 727.9 473.5 725.4 473.5 722.9 473.5 720.9 472.8 719.4 471.3 717.9 469.6 717.2 467.3 717.2 464.2Z" fill="#6D6A69"/><path d="M769.4 457 766.5 456.9C764.8 456.9 763.2 457.8 761.6 459.7L761.6 471.8C761.6 472.1 761.5 472.4 761.3 472.6 761.1 472.8 760.8 472.9 760.5 472.9L756.2 472.9C755.9 472.9 755.6 472.8 755.4 472.6 755.2 472.4 755.1 472.1 755.1 471.8L755.1 453.3C755.1 453 755.2 452.7 755.4 452.5 755.6 452.3 755.9 452.2 756.2 452.2L760.5 452.2C760.8 452.2 761.1 452.3 761.3 452.5 761.5 452.7 761.6 453 761.6 453.3L761.6 454.5C762.9 453.6 764.1 452.9 765.3 452.4 766.5 452 768.1 451.7 770 451.7 770.3 451.7 770.6 451.8 770.8 452 771 452.2 771.1 452.5 771.1 452.8L771.1 455.7C771.1 456 771 456.3 770.8 456.5 770.6 456.7 770.3 456.8 770 456.8L769.4 456.8Z" fill="#6D6A69"/><path d="M795 473.3C791.4 473.3 788.7 472.4 786.7 470.6 784.7 468.8 783.7 466.1 783.7 462.6 783.7 459.1 784.7 456.4 786.6 454.5 788.6 452.7 791.3 451.8 794.8 451.8 798.3 451.8 801 452.4 802.9 453.5 804.8 454.6 805.7 456.3 805.7 458.4 805.7 458.7 805.6 459 805.4 459.2 805.2 459.4 804.9 459.5 804.6 459.5L801.8 459.5C800.9 459.5 800.2 459 799.6 458.1 798.9 456.9 797.5 456.3 795.6 456.3 793.7 456.3 792.4 456.8 791.6 457.8 790.8 458.8 790.5 460.3 790.5 462.5 790.5 464.7 790.9 466.3 791.7 467.2 792.5 468.2 793.8 468.7 795.8 468.7 797.7 468.7 799.1 468.1 799.8 466.9 800.4 466 801.1 465.5 802 465.5L804.8 465.5C805.1 465.5 805.4 465.6 805.6 465.8 805.8 466 805.9 466.3 805.9 466.6 805.9 468.8 805 470.4 803.1 471.5 801.3 472.8 798.6 473.3 795 473.3Z" fill="#6D6A69"/><path d="M820.4 448.2 820.4 447.6C820.4 446.9 820.6 446.4 821 446 821.4 445.6 821.9 445.4 822.6 445.4L825 445.4C825.7 445.4 826.2 445.6 826.6 446 827 446.4 827.2 446.9 827.2 447.6L827.2 448.2C827.2 448.9 827 449.4 826.6 449.8 826.2 450.2 825.7 450.4 825 450.4L822.6 450.4C821.9 450.4 821.4 450.2 821 449.8 820.6 449.4 820.4 448.8 820.4 448.2ZM820.5 471.8 820.5 453.8C820.5 453.5 820.6 453.2 820.8 453 821 452.8 821.3 452.7 821.6 452.7L825.9 452.7C826.2 452.7 826.5 452.8 826.7 453 826.9 453.2 827 453.5 827 453.8L827 471.8C827 472.1 826.9 472.4 826.7 472.6 826.5 472.8 826.2 472.9 825.9 472.9L821.6 472.9C821.3 472.9 821 472.8 820.8 472.6 820.6 472.4 820.5 472.1 820.5 471.8Z" fill="#6D6A69"/><path d="M843.1 471.8 843.1 453.3C843.1 453 843.2 452.7 843.4 452.5 843.6 452.3 843.9 452.2 844.2 452.2L848.5 452.2C848.8 452.2 849.1 452.3 849.3 452.5 849.5 452.7 849.6 453 849.6 453.3L849.6 454.5C851.8 452.7 854.1 451.7 856.6 451.7 859.1 451.7 861.1 452.5 862.6 454 864.1 455.5 864.9 457.8 864.9 460.9L864.9 471.8C864.9 472.1 864.8 472.4 864.6 472.6 864.4 472.8 864.1 472.9 863.8 472.9L859.6 472.9C859.3 472.9 859 472.8 858.8 472.6 858.6 472.4 858.5 472.1 858.5 471.8L858.5 460.9C858.5 457.9 857.3 456.4 854.9 456.4 853.3 456.4 851.6 457.3 849.8 459.1L849.8 471.8C849.8 472.1 849.7 472.4 849.5 472.6 849.3 472.8 849 472.9 848.7 472.9L844.4 472.9C844.1 472.9 843.8 472.8 843.6 472.6 843.2 472.4 843.1 472.1 843.1 471.8Z" fill="#6D6A69"/><path d="M882.3 468.8C880.5 467.1 879.7 464.7 879.7 461.6 879.7 458.5 880.7 456.1 882.7 454.4 884.7 452.7 887.6 451.8 891.4 451.8 893.2 451.8 895.1 452 897.1 452.4 899.1 452.8 900.6 453.3 901.6 453.9L901.6 471.5C901.6 474.3 900.7 476.4 898.8 477.8 896.9 479.1 894.3 479.8 891 479.8 887.6 479.8 885.1 479.4 883.2 478.5 881.4 477.7 880.5 476.3 880.5 474.3 880.5 474 880.6 473.7 880.8 473.5 881 473.3 881.3 473.2 881.6 473.2L884.4 473.2C885.3 473.2 886 473.5 886.6 474.2 887.3 475.1 888.5 475.5 890.3 475.5 892.1 475.5 893.3 475.2 894 474.6 894.7 474 895 473 895 471.5L895 470.6C893 471.1 891.1 471.4 889.3 471.4 886.4 471.4 884.1 470.5 882.3 468.8ZM891 456.4C888 456.4 886.5 458.1 886.5 461.6 886.5 465.1 888 466.8 890.9 466.8 892.1 466.8 893.5 466.6 895 466.2L895 456.8C893.9 456.5 892.5 456.3 891 456.4Z" fill="#6D6A69"/></g></g></svg>